<svg width="176" height="48" viewBox="0 0 176 48" fill="none" xmlns="http://www.w3.org/2000/svg">
<path d="M62 20.5L38 38.2535V2.74648L62 20.5Z" fill="#7A79C7"/>
<path d="M12 20.5L36 2.74648V38.2535L12 20.5Z" fill="#C77979"/>
<rect width="11.9343" height="11.9343" transform="matrix(0.740624 -0.671919 0.740624 0.671919 28.3462 20.2317)" fill="white"/>
<rect x="39" y="19" width="15" height="3" fill="white"/>
<rect x="21" y="19" width="15" height="3" fill="white"/>
<path d="M57 20.5L51.75 23.5311V17.4689L57 20.5Z" fill="white"/>
<path d="M17 20.5L22.25 17.4689V23.5311L17 20.5Z" fill="white"/>
<path d="M0 20.5L5.25 17.4689L5.25 23.5311L0 20.5Z" fill="white"/>
<path d="M69.9695 4.90909H71.0433L70.5114 8.1108H70.5561L73.2855 4.90909H74.2276L73.3825 10H72.3061L72.8381 6.79581H72.8008L70.0565 10H69.1243L69.9695 4.90909ZM79.4447 4.90909L78.5995 10H77.5356L78.2391 5.78409H76.1808L75.4774 10H74.4134L75.2586 4.90909H79.4447ZM80.1687 10.0696L80.3153 9.1946H80.5913C80.7288 9.1946 80.8423 9.17803 80.9318 9.14489C81.0213 9.11009 81.0967 9.05954 81.158 8.99325C81.2193 8.92531 81.2757 8.84079 81.3271 8.7397L81.419 8.57315L80.1737 4.90909H81.2873L82.0728 7.41477L83.4897 4.90909H84.5859L82.1573 9.00071C82.0397 9.18963 81.9096 9.36529 81.767 9.5277C81.6245 9.6901 81.4555 9.82102 81.2599 9.92045C81.0644 10.0199 80.8274 10.0696 80.549 10.0696H80.1687Z" fill="#C77979"/>
<path d="M69.7617 14H70.6055L70.1875 16.5156H70.2227L72.3672 14H73.1074L72.4434 18H71.5977L72.0156 15.4824H71.9863L69.8301 18H69.0977L69.7617 14Z" fill="#7A79C7"/>
<path d="M75.5249 16.168L75.4155 16.8223H73.8491L73.9565 16.168H75.5249ZM74.4253 15L73.9253 18H73.1323L73.6323 15H74.4253ZM76.2397 15L75.7397 18H74.9507L75.4507 15H76.2397ZM77.7344 18.0586C77.4258 18.0586 77.1719 17.9935 76.9727 17.8633C76.7747 17.7318 76.6361 17.5495 76.5566 17.3164C76.4785 17.0833 76.4648 16.8151 76.5156 16.5117C76.5651 16.2044 76.6686 15.9349 76.8262 15.7031C76.9837 15.4701 77.1836 15.2884 77.4258 15.1582C77.6693 15.0267 77.9427 14.9609 78.2461 14.9609C78.5078 14.9609 78.7292 15.0085 78.9102 15.1035C79.0911 15.1986 79.224 15.332 79.3086 15.5039C79.3932 15.6758 79.4219 15.8776 79.3945 16.1094H78.6113C78.6126 15.9609 78.5742 15.8405 78.4961 15.748C78.418 15.6556 78.3034 15.6094 78.1523 15.6094C78.0221 15.6094 77.9023 15.6445 77.793 15.7148C77.6849 15.7839 77.5931 15.8848 77.5176 16.0176C77.4434 16.1504 77.3913 16.3112 77.3613 16.5C77.3301 16.6914 77.3294 16.8542 77.3594 16.9883C77.3893 17.1224 77.4466 17.2246 77.5313 17.2949C77.6159 17.3652 77.7227 17.4004 77.8516 17.4004C77.9479 17.4004 78.0371 17.3809 78.1191 17.3418C78.2025 17.3027 78.2754 17.2461 78.3379 17.1719C78.4004 17.0964 78.4486 17.0059 78.4824 16.9004H79.2676C79.2142 17.1309 79.1172 17.3327 78.9766 17.5059C78.8372 17.679 78.6621 17.8145 78.4512 17.9121C78.2402 18.0098 78.0013 18.0586 77.7344 18.0586ZM79.8008 15.6543L79.9102 15H82.6289L82.5195 15.6543H81.5547L81.166 18H80.3711L80.7617 15.6543H79.8008ZM83.6157 16.9023L85.0122 15H85.8345L85.3345 18H84.5396L84.8579 16.0918L83.4634 18H82.6392L83.1392 15H83.9321L83.6157 16.9023ZM86.0903 15.6543L86.1997 15H88.9185L88.8091 15.6543H87.8442L87.4556 18H86.6606L87.0513 15.6543H86.0903ZM89.2529 19.125C89.1462 19.125 89.0485 19.1165 88.96 19.0996C88.8714 19.084 88.7985 19.0638 88.7412 19.0391L89.0342 18.418C89.1266 18.4479 89.2106 18.4635 89.2861 18.4648C89.363 18.4661 89.4333 18.4466 89.4971 18.4063C89.5609 18.3659 89.6195 18.2995 89.6729 18.207L89.7471 18.0801L89.1846 15H90.0283L90.2822 17.207H90.3135L91.3076 15H92.2197L90.5029 18.3242C90.4183 18.487 90.318 18.6283 90.2021 18.748C90.0876 18.8678 89.9515 18.9603 89.7939 19.0254C89.6377 19.0918 89.4574 19.125 89.2529 19.125ZM92.3799 15.6543L92.4893 15H95.208L95.0986 15.6543H94.1338L93.7451 18H92.9502L93.3408 15.6543H92.3799Z" fill="#C77979"/>
<path d="M69.7617 32H70.6055L70.1875 34.5156H70.2227L72.3672 32H73.1074L72.4434 36H71.5977L72.0156 33.4824H71.9863L69.8301 36H69.0977L69.7617 32ZM75.0562 35.0801L76.2163 33H76.8511L75.1812 36H74.6265L73.9858 33H74.6167L75.0562 35.0801ZM74.4253 33L73.9253 36H73.1323L73.6323 33H74.4253ZM75.9233 36L76.4233 33H77.2085L76.7085 36H75.9233ZM77.877 36.0508C77.7454 36.0508 77.6374 36.0052 77.5527 35.9141C77.4694 35.8229 77.4316 35.7122 77.4395 35.582C77.4486 35.4531 77.5026 35.3444 77.6016 35.2559C77.7018 35.166 77.8171 35.1211 77.9473 35.1211C78.0723 35.1211 78.1777 35.166 78.2637 35.2559C78.3496 35.3457 78.3874 35.4544 78.377 35.582C78.3704 35.668 78.3424 35.7467 78.293 35.8184C78.2448 35.8887 78.1836 35.9453 78.1094 35.9883C78.0352 36.0299 77.9577 36.0508 77.877 36.0508ZM80.0923 36L80.7563 32H82.3579C82.6522 32 82.8905 32.0436 83.0728 32.1309C83.2563 32.2181 83.3846 32.3392 83.4575 32.4941C83.5304 32.6478 83.55 32.8249 83.5161 33.0254C83.4888 33.1816 83.4334 33.3184 83.3501 33.4355C83.2681 33.5527 83.1665 33.6491 83.0454 33.7246C82.9243 33.8001 82.7928 33.8535 82.6509 33.8848L82.6431 33.9238C82.7941 33.9303 82.9302 33.9733 83.0513 34.0527C83.1724 34.1309 83.2629 34.2415 83.3228 34.3848C83.3826 34.528 83.3963 34.6979 83.3638 34.8945C83.3286 35.1068 83.2446 35.2962 83.1118 35.4629C82.979 35.6283 82.8019 35.7591 82.5806 35.8555C82.3605 35.9518 82.1007 36 81.8013 36H80.0923ZM81.0552 35.3086H81.7446C81.979 35.3086 82.158 35.263 82.2817 35.1719C82.4054 35.0807 82.4797 34.9603 82.5044 34.8105C82.5213 34.6999 82.5103 34.6022 82.4712 34.5176C82.4334 34.4329 82.369 34.3665 82.2778 34.3184C82.188 34.2702 82.0741 34.2461 81.936 34.2461H81.229L81.0552 35.3086ZM81.3267 33.6738H81.9536C82.0682 33.6738 82.1743 33.6536 82.272 33.6133C82.3709 33.5716 82.4523 33.513 82.5161 33.4375C82.5812 33.3607 82.6222 33.2702 82.6392 33.166C82.6626 33.0202 82.63 32.9036 82.5415 32.8164C82.4543 32.7279 82.3175 32.6836 82.1313 32.6836H81.4907L81.3267 33.6738ZM84.2363 36.0508C84.1048 36.0508 83.9967 36.0052 83.9121 35.9141C83.8288 35.8229 83.791 35.7122 83.7988 35.582C83.8079 35.4531 83.862 35.3444 83.9609 35.2559C84.0612 35.166 84.1764 35.1211 84.3066 35.1211C84.4316 35.1211 84.5371 35.166 84.623 35.2559C84.709 35.3457 84.7467 35.4544 84.7363 35.582C84.7298 35.668 84.7018 35.7467 84.6523 35.8184C84.6042 35.8887 84.543 35.9453 84.4688 35.9883C84.3945 36.0299 84.3171 36.0508 84.2363 36.0508ZM86.0562 36H85.1499L87.1948 32H88.2847L88.9995 36H88.0933L87.6069 32.9141H87.5757L86.0562 36ZM86.2632 34.4277H88.4038L88.2905 35.0879H86.1499L86.2632 34.4277ZM89.9888 36.0508C89.8573 36.0508 89.7492 36.0052 89.6646 35.9141C89.5812 35.8229 89.5435 35.7122 89.5513 35.582C89.5604 35.4531 89.6144 35.3444 89.7134 35.2559C89.8136 35.166 89.9289 35.1211 90.0591 35.1211C90.1841 35.1211 90.2896 35.166 90.3755 35.2559C90.4614 35.3457 90.4992 35.4544 90.4888 35.582C90.4823 35.668 90.4543 35.7467 90.4048 35.8184C90.3566 35.8887 90.2954 35.9453 90.2212 35.9883C90.147 36.0299 90.0695 36.0508 89.9888 36.0508ZM91.3257 32.6973L91.4429 32H94.728L94.6108 32.6973H93.3862L92.8394 36H92.0034L92.5503 32.6973H91.3257ZM94.0962 37.125L94.7876 33H95.6079L95.5239 33.5039H95.561C95.6105 33.4232 95.6763 33.3411 95.7583 33.2578C95.8416 33.1732 95.9451 33.1029 96.0688 33.0469C96.1925 32.9896 96.3377 32.9609 96.5044 32.9609C96.7244 32.9609 96.9165 33.0182 97.0806 33.1328C97.2446 33.2461 97.3631 33.4173 97.436 33.6465C97.5103 33.8743 97.5187 34.1602 97.4614 34.5039C97.4067 34.8385 97.3058 35.1211 97.1587 35.3516C97.0129 35.5807 96.8377 35.7546 96.6333 35.873C96.4302 35.9902 96.2147 36.0488 95.9868 36.0488C95.8254 36.0488 95.6925 36.0221 95.5884 35.9687C95.4855 35.9154 95.4054 35.8483 95.3481 35.7676C95.2909 35.6855 95.2505 35.6029 95.2271 35.5195H95.1958L94.9302 37.125H94.0962ZM95.3521 34.5C95.3234 34.6784 95.3221 34.834 95.3481 34.9668C95.3755 35.0996 95.4302 35.2031 95.5122 35.2773C95.5942 35.3503 95.7023 35.3867 95.8364 35.3867C95.9718 35.3867 96.0923 35.3496 96.1978 35.2754C96.3032 35.1999 96.3911 35.0957 96.4614 34.9629C96.5317 34.8288 96.5819 34.6745 96.6118 34.5C96.6392 34.3268 96.6398 34.1745 96.6138 34.043C96.5877 33.9115 96.5343 33.8086 96.4536 33.7344C96.3729 33.6602 96.2635 33.623 96.1255 33.623C95.9914 33.623 95.8709 33.6589 95.7642 33.7305C95.6587 33.8021 95.5708 33.9036 95.5005 34.0352C95.4302 34.1667 95.3807 34.3216 95.3521 34.5ZM98.6113 36.0566C98.4212 36.0566 98.2565 36.0234 98.1172 35.957C97.9792 35.8893 97.8776 35.7891 97.8125 35.6562C97.7474 35.5234 97.7311 35.3587 97.7637 35.1621C97.7923 34.9954 97.8464 34.8561 97.9258 34.7441C98.0065 34.6309 98.1048 34.5397 98.2207 34.4707C98.3366 34.4017 98.4648 34.349 98.6055 34.3125C98.7474 34.276 98.8939 34.2513 99.0449 34.2383C99.2194 34.2201 99.3613 34.2025 99.4707 34.1855C99.5814 34.1686 99.6641 34.1445 99.7188 34.1133C99.7734 34.0807 99.8066 34.0326 99.8184 33.9687V33.957C99.8379 33.8346 99.8151 33.7396 99.75 33.6719C99.6862 33.6029 99.584 33.5684 99.4434 33.5684C99.2949 33.5684 99.1686 33.6009 99.0645 33.666C98.9616 33.7311 98.888 33.8138 98.8438 33.9141L98.0859 33.8516C98.1536 33.6693 98.2559 33.5117 98.3926 33.3789C98.5306 33.2448 98.6966 33.1419 98.8906 33.0703C99.0846 32.9974 99.3021 32.9609 99.543 32.9609C99.7096 32.9609 99.8652 32.9805 100.01 33.0195C100.156 33.0586 100.281 33.1191 100.387 33.2012C100.493 33.2832 100.57 33.3887 100.617 33.5176C100.665 33.6452 100.675 33.7982 100.646 33.9766L100.309 36H99.5195L99.5898 35.584H99.5664C99.5026 35.6777 99.4245 35.7604 99.332 35.832C99.2396 35.9023 99.1335 35.9577 99.0137 35.998C98.8939 36.0371 98.7598 36.0566 98.6113 36.0566ZM98.9453 35.4824C99.0664 35.4824 99.1777 35.4583 99.2793 35.4102C99.3822 35.3607 99.4668 35.2943 99.5332 35.2109C99.6009 35.1276 99.6439 35.0332 99.6621 34.9277L99.7129 34.6094C99.6868 34.6263 99.6491 34.6413 99.5996 34.6543C99.5514 34.6673 99.4987 34.6797 99.4414 34.6914C99.3854 34.7018 99.3288 34.7116 99.2715 34.7207C99.2142 34.7285 99.1628 34.7363 99.1172 34.7441C99.0169 34.7585 98.9271 34.7812 98.8477 34.8125C98.7682 34.8437 98.7038 34.8861 98.6543 34.9395C98.6048 34.9915 98.5742 35.0566 98.5625 35.1348C98.5443 35.248 98.571 35.3346 98.6426 35.3945C98.7155 35.4531 98.8164 35.4824 98.9453 35.4824ZM100.96 36L101.46 33H104.081L103.581 36H102.788L103.181 33.6543H102.136L101.743 36H100.96ZM105.606 36.0586C105.299 36.0586 105.044 35.9961 104.842 35.8711C104.64 35.7448 104.499 35.5664 104.417 35.3359C104.336 35.1042 104.322 34.8301 104.375 34.5137C104.428 34.2051 104.532 33.9342 104.69 33.7012C104.849 33.4681 105.048 33.2865 105.288 33.1562C105.527 33.026 105.794 32.9609 106.088 32.9609C106.286 32.9609 106.465 32.9928 106.625 33.0566C106.787 33.1191 106.921 33.2142 107.028 33.3418C107.135 33.4681 107.208 33.6263 107.247 33.8164C107.287 34.0065 107.286 34.2292 107.245 34.4844L107.208 34.7129H104.676L104.756 34.1973H106.506C106.526 34.0775 106.518 33.9714 106.483 33.8789C106.448 33.7865 106.389 33.7142 106.307 33.6621C106.225 33.6087 106.124 33.582 106.004 33.582C105.882 33.582 105.767 33.612 105.661 33.6719C105.554 33.7318 105.464 33.8105 105.391 33.9082C105.319 34.0046 105.273 34.1094 105.252 34.2227L105.161 34.7344C105.135 34.8919 105.14 35.0228 105.176 35.127C105.214 35.2311 105.279 35.3092 105.372 35.3613C105.464 35.4121 105.581 35.4375 105.723 35.4375C105.816 35.4375 105.902 35.4245 105.983 35.3984C106.065 35.3724 106.138 35.334 106.202 35.2832C106.265 35.2311 106.318 35.1667 106.358 35.0898L107.118 35.1406C107.047 35.3255 106.941 35.487 106.797 35.625C106.654 35.7617 106.482 35.8685 106.28 35.9453C106.079 36.0208 105.855 36.0586 105.606 36.0586ZM107.527 35.1504H108.334C108.321 35.2493 108.352 35.3275 108.426 35.3848C108.501 35.4421 108.605 35.4707 108.738 35.4707C108.875 35.4707 108.994 35.4395 109.096 35.377C109.197 35.3132 109.258 35.222 109.277 35.1035C109.29 35.0306 109.283 34.9674 109.256 34.9141C109.23 34.8594 109.187 34.8164 109.127 34.7852C109.067 34.7539 108.994 34.7383 108.908 34.7383H108.477L108.57 34.1934H109.002C109.128 34.1934 109.232 34.1641 109.313 34.1055C109.395 34.0456 109.443 33.9701 109.457 33.8789C109.471 33.7773 109.447 33.696 109.385 33.6348C109.324 33.5723 109.23 33.541 109.105 33.541C108.984 33.541 108.878 33.569 108.787 33.625C108.696 33.6797 108.641 33.7513 108.621 33.8398H107.818C107.852 33.6602 107.933 33.5046 108.061 33.373C108.189 33.2415 108.35 33.14 108.543 33.0684C108.736 32.9967 108.944 32.9609 109.168 32.9609C109.413 32.9609 109.618 32.9954 109.785 33.0645C109.952 33.1322 110.073 33.2292 110.148 33.3555C110.224 33.4818 110.246 33.6322 110.215 33.8066C110.189 33.9655 110.115 34.0983 109.992 34.2051C109.87 34.3118 109.712 34.388 109.52 34.4336L109.512 34.4648C109.634 34.4727 109.74 34.5059 109.83 34.5645C109.921 34.623 109.988 34.7038 110.031 34.8066C110.074 34.9082 110.084 35.0286 110.061 35.168C110.031 35.3542 109.95 35.5137 109.818 35.6465C109.688 35.7793 109.521 35.8815 109.318 35.9531C109.117 36.0234 108.892 36.0586 108.645 36.0586C108.405 36.0586 108.197 36.0241 108.02 35.9551C107.842 35.8848 107.71 35.7819 107.621 35.6465C107.533 35.5111 107.501 35.3457 107.527 35.1504ZM112.833 34.168L112.723 34.8223H111.157L111.264 34.168H112.833ZM111.733 33L111.233 36H110.44L110.94 33H111.733ZM113.547 33L113.047 36H112.258L112.758 33H113.547ZM114.677 34.9023L116.073 33H116.896L116.396 36H115.601L115.919 34.0918L114.524 36H113.7L114.2 33H114.993L114.677 34.9023ZM117.068 36L117.568 33H118.398L118.203 34.1641H118.437L119.449 33H120.427L119.119 34.4883L119.937 36H118.951L118.388 34.9355H118.078L117.898 36H117.068ZM121.521 36.0586C121.215 36.0586 120.961 35.9935 120.761 35.8633C120.56 35.7318 120.419 35.5495 120.337 35.3164C120.256 35.082 120.241 34.8092 120.292 34.498C120.341 34.1908 120.444 33.9219 120.601 33.6914C120.757 33.4609 120.955 33.2819 121.196 33.1543C121.437 33.0254 121.709 32.9609 122.011 32.9609C122.315 32.9609 122.568 33.0267 122.769 33.1582C122.969 33.2884 123.11 33.4707 123.192 33.7051C123.274 33.9395 123.29 34.2122 123.239 34.5234C123.188 34.8294 123.084 35.0977 122.927 35.3281C122.769 35.5586 122.571 35.7383 122.331 35.8672C122.091 35.9948 121.821 36.0586 121.521 36.0586ZM121.603 35.4141C121.743 35.4141 121.868 35.3743 121.976 35.2949C122.085 35.2142 122.175 35.1048 122.247 34.9668C122.32 34.8275 122.371 34.6699 122.399 34.4941C122.428 34.321 122.43 34.1673 122.405 34.0332C122.381 33.8978 122.328 33.791 122.249 33.7129C122.171 33.6348 122.063 33.5957 121.927 33.5957C121.786 33.5957 121.661 33.6361 121.552 33.7168C121.442 33.7962 121.352 33.9056 121.28 34.0449C121.209 34.1842 121.159 34.3424 121.13 34.5195C121.103 34.6914 121.101 34.8451 121.124 34.9805C121.147 35.1146 121.199 35.2207 121.278 35.2988C121.358 35.3757 121.466 35.4141 121.603 35.4141ZM123.54 36L124.04 33H125.317C125.686 33 125.966 33.0703 126.157 33.2109C126.35 33.3516 126.424 33.5514 126.38 33.8105C126.354 33.9733 126.271 34.1087 126.132 34.2168C125.993 34.3249 125.813 34.3978 125.593 34.4355C125.771 34.4486 125.918 34.4896 126.032 34.5586C126.148 34.6263 126.23 34.7142 126.278 34.8223C126.328 34.9303 126.342 35.0501 126.321 35.1816C126.293 35.3522 126.222 35.4987 126.11 35.6211C126 35.7435 125.852 35.8372 125.667 35.9023C125.483 35.9674 125.266 36 125.015 36H123.54ZM124.417 35.377H125.118C125.235 35.377 125.332 35.349 125.407 35.293C125.483 35.237 125.528 35.1615 125.542 35.0664C125.562 34.9596 125.543 34.8757 125.485 34.8145C125.429 34.7533 125.343 34.7227 125.228 34.7227H124.526L124.417 35.377ZM124.608 34.2344H125.13C125.212 34.2344 125.285 34.2227 125.349 34.1992C125.412 34.1745 125.464 34.1393 125.503 34.0938C125.543 34.0482 125.569 33.9941 125.579 33.9316C125.595 33.8405 125.569 33.7689 125.503 33.7168C125.437 33.6634 125.339 33.6367 125.21 33.6367H124.706L124.608 34.2344ZM127.556 36.0566C127.366 36.0566 127.201 36.0234 127.062 35.957C126.924 35.8893 126.822 35.7891 126.757 35.6562C126.692 35.5234 126.676 35.3587 126.708 35.1621C126.737 34.9954 126.791 34.8561 126.871 34.7441C126.951 34.6309 127.05 34.5397 127.166 34.4707C127.281 34.4017 127.41 34.349 127.55 34.3125C127.692 34.276 127.839 34.2513 127.99 34.2383C128.164 34.2201 128.306 34.2025 128.416 34.1855C128.526 34.1686 128.609 34.1445 128.664 34.1133C128.718 34.0807 128.751 34.0326 128.763 33.9687V33.957C128.783 33.8346 128.76 33.7396 128.695 33.6719C128.631 33.6029 128.529 33.5684 128.388 33.5684C128.24 33.5684 128.113 33.6009 128.009 33.666C127.906 33.7311 127.833 33.8138 127.789 33.9141L127.031 33.8516C127.098 33.6693 127.201 33.5117 127.337 33.3789C127.475 33.2448 127.641 33.1419 127.835 33.0703C128.029 32.9974 128.247 32.9609 128.488 32.9609C128.654 32.9609 128.81 32.9805 128.955 33.0195C129.1 33.0586 129.226 33.1191 129.332 33.2012C129.438 33.2832 129.515 33.3887 129.562 33.5176C129.61 33.6452 129.62 33.7982 129.591 33.9766L129.253 36H128.464L128.535 35.584H128.511C128.447 35.6777 128.369 35.7604 128.277 35.832C128.184 35.9023 128.078 35.9577 127.958 35.998C127.839 36.0371 127.705 36.0566 127.556 36.0566ZM127.89 35.4824C128.011 35.4824 128.123 35.4583 128.224 35.4102C128.327 35.3607 128.412 35.2943 128.478 35.2109C128.546 35.1276 128.589 35.0332 128.607 34.9277L128.658 34.6094C128.632 34.6263 128.594 34.6413 128.544 34.6543C128.496 34.6673 128.444 34.6797 128.386 34.6914C128.33 34.7018 128.274 34.7116 128.216 34.7207C128.159 34.7285 128.108 34.7363 128.062 34.7441C127.962 34.7585 127.872 34.7812 127.792 34.8125C127.713 34.8437 127.649 34.8861 127.599 34.9395C127.55 34.9915 127.519 35.0566 127.507 35.1348C127.489 35.248 127.516 35.3346 127.587 35.3945C127.66 35.4531 127.761 35.4824 127.89 35.4824Z" fill="#7A79C7"/>
<path d="M73.1621 20L72.498 24H71.6621L72.2148 20.6875H70.5977L70.0449 24H69.209L69.873 20H73.1621Z" fill="#7A79C7"/>
<path d="M73.106 25.125L73.7974 21H74.6177L74.5337 21.5039H74.5708C74.6203 21.4232 74.686 21.3411 74.7681 21.2578C74.8514 21.1732 74.9549 21.1029 75.0786 21.0469C75.2023 20.9896 75.3475 20.9609 75.5142 20.9609C75.7342 20.9609 75.9263 21.0182 76.0903 21.1328C76.2544 21.2461 76.3729 21.4173 76.4458 21.6465C76.52 21.8743 76.5285 22.1602 76.4712 22.5039C76.4165 22.8385 76.3156 23.1211 76.1685 23.3516C76.0226 23.5807 75.8475 23.7546 75.6431 23.873C75.4399 23.9902 75.2244 24.0488 74.9966 24.0488C74.8351 24.0488 74.7023 24.0221 74.5981 23.9687C74.4953 23.9154 74.4152 23.8483 74.3579 23.7676C74.3006 23.6855 74.2603 23.6029 74.2368 23.5195H74.2056L73.9399 25.125H73.106ZM74.3618 22.5C74.3332 22.6784 74.3319 22.834 74.3579 22.9668C74.3853 23.0996 74.4399 23.2031 74.522 23.2773C74.604 23.3503 74.7121 23.3867 74.8462 23.3867C74.9816 23.3867 75.1021 23.3496 75.2075 23.2754C75.313 23.1999 75.4009 23.0957 75.4712 22.9629C75.5415 22.8288 75.5916 22.6745 75.6216 22.5C75.6489 22.3268 75.6496 22.1745 75.6235 22.043C75.5975 21.9115 75.5441 21.8086 75.4634 21.7344C75.3826 21.6602 75.2733 21.623 75.1353 21.623C75.0011 21.623 74.8807 21.6589 74.7739 21.7305C74.6685 21.8021 74.5806 21.9036 74.5103 22.0352C74.4399 22.1667 74.3905 22.3216 74.3618 22.5ZM78.1328 24.0586C77.8268 24.0586 77.5736 23.9935 77.373 23.8633C77.1725 23.7318 77.0313 23.5495 76.9492 23.3164C76.8685 23.082 76.8535 22.8092 76.9043 22.498C76.9538 22.1908 77.0566 21.9219 77.2129 21.6914C77.3691 21.4609 77.5677 21.2819 77.8086 21.1543C78.0495 21.0254 78.321 20.9609 78.623 20.9609C78.9277 20.9609 79.1803 21.0267 79.3809 21.1582C79.5814 21.2884 79.7227 21.4707 79.8047 21.7051C79.8867 21.9395 79.9023 22.2122 79.8516 22.5234C79.8008 22.8294 79.6966 23.0977 79.5391 23.3281C79.3815 23.5586 79.1829 23.7383 78.9434 23.8672C78.7038 23.9948 78.4336 24.0586 78.1328 24.0586ZM78.2148 23.4141C78.3555 23.4141 78.4798 23.3743 78.5879 23.2949C78.6973 23.2142 78.7878 23.1048 78.8594 22.9668C78.9323 22.8275 78.9831 22.6699 79.0117 22.4941C79.0404 22.321 79.0423 22.1673 79.0176 22.0332C78.9928 21.8978 78.9408 21.791 78.8613 21.7129C78.7832 21.6348 78.6758 21.5957 78.5391 21.5957C78.3984 21.5957 78.2734 21.6361 78.1641 21.7168C78.0547 21.7962 77.9642 21.9056 77.8926 22.0449C77.821 22.1842 77.7708 22.3424 77.7422 22.5195C77.7148 22.6914 77.7129 22.8451 77.7363 22.9805C77.7598 23.1146 77.8112 23.2207 77.8906 23.2988C77.9701 23.3757 78.0781 23.4141 78.2148 23.4141ZM83.3379 19.8984L83.502 20.4414C83.4056 20.5117 83.3034 20.5638 83.1953 20.5977C83.0872 20.6302 82.9609 20.6517 82.8164 20.6621C82.6719 20.6725 82.4974 20.6797 82.293 20.6836C82.0599 20.6862 81.8646 20.7233 81.707 20.7949C81.5495 20.8665 81.4199 20.9792 81.3184 21.1328C81.2181 21.2852 81.1354 21.4844 81.0703 21.7305H81.0996C81.2207 21.5469 81.3711 21.4049 81.5508 21.3047C81.7305 21.2044 81.9421 21.1543 82.1855 21.1543C82.4395 21.1543 82.6523 21.2103 82.8242 21.3223C82.9974 21.4342 83.1204 21.5951 83.1934 21.8047C83.2663 22.013 83.2793 22.2643 83.2324 22.5586C83.1803 22.8633 83.0762 23.1283 82.9199 23.3535C82.7637 23.5775 82.5658 23.7513 82.3262 23.875C82.0866 23.9974 81.8158 24.0586 81.5137 24.0586C81.2116 24.0586 80.9609 23.9948 80.7617 23.8672C80.5625 23.7396 80.4238 23.5514 80.3457 23.3027C80.2676 23.054 80.2585 22.748 80.3184 22.3848L80.3574 22.1387C80.4798 21.4147 80.7103 20.8789 81.0488 20.5313C81.3887 20.1823 81.832 20.0052 82.3789 20C82.5273 19.9974 82.6615 19.9967 82.7813 19.998C82.901 19.9993 83.0072 19.9935 83.0996 19.9805C83.1921 19.9674 83.2715 19.9401 83.3379 19.8984ZM81.623 23.4141C81.7507 23.4141 81.8659 23.3809 81.9688 23.3145C82.0729 23.248 82.1602 23.153 82.2305 23.0293C82.3021 22.9056 82.3522 22.7578 82.3809 22.5859C82.4082 22.4154 82.4063 22.2708 82.375 22.1523C82.3451 22.0326 82.2884 21.9414 82.2051 21.8789C82.123 21.8164 82.0182 21.7852 81.8906 21.7852C81.7943 21.7852 81.7044 21.8027 81.6211 21.8379C81.5391 21.873 81.4648 21.9251 81.3984 21.9941C81.3333 22.0618 81.278 22.1458 81.2324 22.2461C81.1882 22.3451 81.1556 22.4583 81.1348 22.5859C81.0918 22.8424 81.1139 23.0449 81.2012 23.1934C81.2884 23.3405 81.429 23.4141 81.623 23.4141ZM83.3975 24L83.501 23.3398H83.6006C83.6722 23.3398 83.736 23.3229 83.792 23.2891C83.8493 23.2539 83.9014 23.1973 83.9482 23.1191C83.9964 23.041 84.0407 22.9375 84.0811 22.8086C84.1227 22.6784 84.1637 22.5182 84.2041 22.3281L84.4717 21H86.7529L86.2529 24H85.46L85.8525 21.6543H85.1123L84.9131 22.5703C84.8597 22.8216 84.7933 23.0378 84.7139 23.2188C84.6344 23.3997 84.542 23.5482 84.4365 23.6641C84.3324 23.7786 84.2145 23.8633 84.083 23.918C83.9528 23.9727 83.8076 24 83.6475 24H83.3975ZM88.2573 24.0586C87.95 24.0586 87.6955 23.9961 87.4937 23.8711C87.2918 23.7448 87.1499 23.5664 87.0679 23.3359C86.9871 23.1042 86.9735 22.8301 87.0269 22.5137C87.0789 22.2051 87.1838 21.9342 87.3413 21.7012C87.5002 21.4681 87.6994 21.2865 87.939 21.1562C88.1785 21.026 88.4455 20.9609 88.7397 20.9609C88.9377 20.9609 89.1167 20.9928 89.2769 21.0566C89.4383 21.1191 89.5724 21.2142 89.6792 21.3418C89.786 21.4681 89.8589 21.6263 89.8979 21.8164C89.9383 22.0065 89.9377 22.2292 89.896 22.4844L89.8589 22.7129H87.3276L87.4077 22.1973H89.1577C89.1772 22.0775 89.1694 21.9714 89.1343 21.8789C89.0991 21.7865 89.0405 21.7142 88.9585 21.6621C88.8765 21.6087 88.7756 21.582 88.6558 21.582C88.5334 21.582 88.4188 21.612 88.312 21.6719C88.2052 21.7318 88.1154 21.8105 88.0425 21.9082C87.9709 22.0046 87.9246 22.1094 87.9038 22.2227L87.812 22.7344C87.786 22.8919 87.7912 23.0228 87.8276 23.127C87.8654 23.2311 87.9305 23.3092 88.0229 23.3613C88.1154 23.4121 88.2326 23.4375 88.3745 23.4375C88.467 23.4375 88.5535 23.4245 88.6343 23.3984C88.7163 23.3724 88.7892 23.334 88.853 23.2832C88.9168 23.2311 88.9689 23.1667 89.0093 23.0898L89.769 23.1406C89.6987 23.3255 89.592 23.487 89.4487 23.625C89.3055 23.7617 89.133 23.8685 88.9312 23.9453C88.7306 24.0208 88.506 24.0586 88.2573 24.0586ZM92.1201 23.0801L93.2803 21H93.915L92.2451 24H91.6904L91.0498 21H91.6807L92.1201 23.0801ZM91.4893 21L90.9893 24H90.1963L90.6963 21H91.4893ZM92.9873 24L93.4873 21H94.2725L93.7725 24H92.9873Z" fill="#C77979"/>
<path d="M69.5254 30.0547L69.6406 29.3672H69.8574C69.9655 29.3672 70.0547 29.3542 70.125 29.3281C70.1953 29.3008 70.2546 29.2611 70.3027 29.209C70.3509 29.1556 70.3952 29.0892 70.4355 29.0098L70.5078 28.8789L69.5293 26H70.4043L71.0215 27.9687L72.1348 26H72.9961L71.0879 29.2148C70.9954 29.3633 70.8932 29.5013 70.7813 29.6289C70.6693 29.7565 70.5365 29.8594 70.3828 29.9375C70.2292 30.0156 70.043 30.0547 69.8242 30.0547H69.5254Z" fill="#7A79C7"/>
<path d="M72.7886 30L73.2886 27H75.9097L75.4097 30H74.6167L75.0093 27.6543H73.9644L73.5718 30H72.7886ZM75.8936 31.125L76.585 27H77.4053L77.3213 27.5039H77.3584C77.4079 27.4232 77.4736 27.3411 77.5557 27.2578C77.639 27.1732 77.7425 27.1029 77.8662 27.0469C77.9899 26.9896 78.1351 26.9609 78.3018 26.9609C78.5218 26.9609 78.7139 27.0182 78.8779 27.1328C79.042 27.2461 79.1605 27.4173 79.2334 27.6465C79.3076 27.8743 79.3161 28.1602 79.2588 28.5039C79.2041 28.8385 79.1032 29.1211 78.9561 29.3516C78.8102 29.5807 78.6351 29.7546 78.4307 29.873C78.2275 29.9902 78.012 30.0488 77.7842 30.0488C77.6227 30.0488 77.4899 30.0221 77.3857 29.9687C77.2829 29.9154 77.2028 29.8483 77.1455 29.7676C77.0882 29.6855 77.0479 29.6029 77.0244 29.5195H76.9932L76.7275 31.125H75.8936ZM77.1494 28.5C77.1208 28.6784 77.1195 28.834 77.1455 28.9668C77.1729 29.0996 77.2275 29.2031 77.3096 29.2773C77.3916 29.3503 77.4997 29.3867 77.6338 29.3867C77.7692 29.3867 77.8896 29.3496 77.9951 29.2754C78.1006 29.1999 78.1885 29.0957 78.2588 28.9629C78.3291 28.8288 78.3792 28.6745 78.4092 28.5C78.4365 28.3268 78.4372 28.1745 78.4111 28.043C78.3851 27.9115 78.3317 27.8086 78.251 27.7344C78.1702 27.6602 78.0609 27.623 77.9229 27.623C77.7887 27.623 77.6683 27.6589 77.5615 27.7305C77.4561 27.8021 77.3682 27.9036 77.2979 28.0352C77.2275 28.1667 77.1781 28.3216 77.1494 28.5ZM80.4087 30.0566C80.2186 30.0566 80.0539 30.0234 79.9146 29.957C79.7765 29.8893 79.675 29.7891 79.6099 29.6562C79.5448 29.5234 79.5285 29.3587 79.561 29.1621C79.5897 28.9954 79.6437 28.8561 79.7231 28.7441C79.8039 28.6309 79.9022 28.5397 80.0181 28.4707C80.134 28.4017 80.2622 28.349 80.4028 28.3125C80.5448 28.276 80.6912 28.2513 80.8423 28.2383C81.0168 28.2201 81.1587 28.2025 81.2681 28.1855C81.3787 28.1686 81.4614 28.1445 81.5161 28.1133C81.5708 28.0807 81.604 28.0326 81.6157 27.9687V27.957C81.6353 27.8346 81.6125 27.7396 81.5474 27.6719C81.4836 27.6029 81.3813 27.5684 81.2407 27.5684C81.0923 27.5684 80.966 27.6009 80.8618 27.666C80.759 27.7311 80.6854 27.8138 80.6411 27.9141L79.8833 27.8516C79.951 27.6693 80.0532 27.5117 80.1899 27.3789C80.328 27.2448 80.494 27.1419 80.688 27.0703C80.882 26.9974 81.0994 26.9609 81.3403 26.9609C81.507 26.9609 81.6626 26.9805 81.8071 27.0195C81.953 27.0586 82.0786 27.1191 82.1841 27.2012C82.2909 27.2832 82.3677 27.3887 82.4146 27.5176C82.4627 27.6452 82.4725 27.7982 82.4438 27.9766L82.106 30H81.3169L81.3872 29.584H81.3638C81.3 29.6777 81.2218 29.7604 81.1294 29.832C81.0369 29.9023 80.9308 29.9577 80.811 29.998C80.6912 30.0371 80.5571 30.0566 80.4087 30.0566ZM80.7427 29.4824C80.8638 29.4824 80.9751 29.4583 81.0767 29.4102C81.1795 29.3607 81.2642 29.2943 81.3306 29.2109C81.3983 29.1276 81.4412 29.0332 81.4595 28.9277L81.5103 28.6094C81.4842 28.6263 81.4465 28.6413 81.397 28.6543C81.3488 28.6673 81.2961 28.6797 81.2388 28.6914C81.1828 28.7018 81.1261 28.7116 81.0688 28.7207C81.0116 28.7285 80.9601 28.7363 80.9146 28.7441C80.8143 28.7585 80.7244 28.7812 80.645 28.8125C80.5656 28.8437 80.5011 28.8861 80.4517 28.9395C80.4022 28.9915 80.3716 29.0566 80.3599 29.1348C80.3416 29.248 80.3683 29.3346 80.4399 29.3945C80.5129 29.4531 80.6138 29.4824 80.7427 29.4824ZM82.7573 30L83.2573 27H84.5347C84.9032 27 85.1831 27.0703 85.3745 27.2109C85.5672 27.3516 85.6414 27.5514 85.5972 27.8105C85.5711 27.9733 85.4884 28.1087 85.3491 28.2168C85.2098 28.3249 85.0301 28.3978 84.8101 28.4355C84.9884 28.4486 85.1349 28.4896 85.2495 28.5586C85.3654 28.6263 85.4474 28.7142 85.4956 28.8223C85.5451 28.9303 85.5594 29.0501 85.5386 29.1816C85.5099 29.3522 85.4396 29.4987 85.3276 29.6211C85.217 29.7435 85.0692 29.8372 84.8843 29.9023C84.7007 29.9674 84.4832 30 84.2319 30H82.7573ZM83.6343 29.377H84.3354C84.4526 29.377 84.549 29.349 84.6245 29.293C84.7 29.237 84.745 29.1615 84.7593 29.0664C84.7788 28.9596 84.7599 28.8757 84.7026 28.8145C84.6466 28.7533 84.5607 28.7227 84.4448 28.7227H83.7437L83.6343 29.377ZM83.8257 28.2344H84.3472C84.4292 28.2344 84.5021 28.2227 84.5659 28.1992C84.6297 28.1745 84.6812 28.1393 84.7202 28.0938C84.7606 28.0482 84.786 27.9941 84.7964 27.9316C84.812 27.8405 84.7866 27.7689 84.7202 27.7168C84.6538 27.6634 84.5562 27.6367 84.4272 27.6367H83.9233L83.8257 28.2344ZM85.75 30L85.8535 29.3398H85.9531C86.0247 29.3398 86.0885 29.3229 86.1445 29.2891C86.2018 29.2539 86.2539 29.1973 86.3008 29.1191C86.349 29.041 86.3932 28.9375 86.4336 28.8086C86.4753 28.6784 86.5163 28.5182 86.5566 28.3281L86.8242 27H89.1055L88.6055 30H87.8125L88.2051 27.6543H87.4648L87.2656 28.5703C87.2122 28.8216 87.1458 29.0378 87.0664 29.2188C86.987 29.3997 86.8945 29.5482 86.7891 29.6641C86.6849 29.7786 86.5671 29.8633 86.4355 29.918C86.3053 29.9727 86.1602 30 86 30H85.75ZM90.6099 30.0586C90.3026 30.0586 90.048 29.9961 89.8462 29.8711C89.6444 29.7448 89.5024 29.5664 89.4204 29.3359C89.3397 29.1042 89.326 28.8301 89.3794 28.5137C89.4315 28.2051 89.5363 27.9342 89.6938 27.7012C89.8527 27.4681 90.0519 27.2865 90.2915 27.1562C90.5311 27.026 90.798 26.9609 91.0923 26.9609C91.2902 26.9609 91.4692 26.9928 91.6294 27.0566C91.7909 27.1191 91.925 27.2142 92.0317 27.3418C92.1385 27.4681 92.2114 27.6263 92.2505 27.8164C92.2909 28.0065 92.2902 28.2292 92.2485 28.4844L92.2114 28.7129H89.6802L89.7603 28.1973H91.5103C91.5298 28.0775 91.522 27.9714 91.4868 27.8789C91.4517 27.7865 91.3931 27.7142 91.311 27.6621C91.229 27.6087 91.1281 27.582 91.0083 27.582C90.8859 27.582 90.7713 27.612 90.6646 27.6719C90.5578 27.7318 90.4679 27.8105 90.395 27.9082C90.3234 28.0046 90.2772 28.1094 90.2563 28.2227L90.1646 28.7344C90.1385 28.8919 90.1437 29.0228 90.1802 29.127C90.2179 29.2311 90.283 29.3092 90.3755 29.3613C90.4679 29.4121 90.5851 29.4375 90.7271 29.4375C90.8195 29.4375 90.9061 29.4245 90.9868 29.3984C91.0688 29.3724 91.1418 29.334 91.2056 29.2832C91.2694 29.2311 91.3215 29.1667 91.3618 29.0898L92.1216 29.1406C92.0513 29.3255 91.9445 29.487 91.8013 29.625C91.658 29.7617 91.4855 29.8685 91.2837 29.9453C91.0832 30.0208 90.8586 30.0586 90.6099 30.0586ZM94.9414 28.168L94.832 28.8223H93.2656L93.373 28.168H94.9414ZM93.8418 27L93.3418 30H92.5488L93.0488 27H93.8418ZM95.6563 27L95.1563 30H94.3672L94.8672 27H95.6563ZM96.7856 28.9023L98.1821 27H99.0044L98.5044 30H97.7095L98.0278 28.0918L96.6333 30H95.8091L96.3091 27H97.1021L96.7856 28.9023ZM100.929 30L101.321 27.6523H100.759C100.605 27.6523 100.483 27.6875 100.392 27.7578C100.3 27.8281 100.248 27.9115 100.233 28.0078C100.215 28.1055 100.239 28.1882 100.306 28.2559C100.372 28.3223 100.481 28.3555 100.632 28.3555H101.479L101.386 28.918H100.538C100.28 28.918 100.064 28.8789 99.8896 28.8008C99.7152 28.7227 99.5895 28.6139 99.5127 28.4746C99.4359 28.334 99.4131 28.1706 99.4443 27.9844C99.4756 27.7891 99.5544 27.6178 99.6807 27.4707C99.807 27.3223 99.971 27.207 100.173 27.125C100.376 27.0417 100.607 27 100.866 27H102.204L101.704 30H100.929ZM99.0225 30L100.116 28.4375H100.911L99.8193 30H99.0225Z" fill="#C77979"/>
<path d="M87.1243 10L87.9695 4.90909H89.978C90.3625 4.90909 90.6781 4.98284 90.9251 5.13033C91.1737 5.27616 91.3477 5.47917 91.4471 5.73935C91.5482 5.99787 91.5714 6.29616 91.5167 6.63423C91.4603 6.97396 91.3377 7.27308 91.1488 7.53161C90.9615 7.78847 90.7179 7.98899 90.418 8.13317C90.118 8.27734 89.7717 8.34943 89.3789 8.34943H88.0987L88.2404 7.48686H89.3466C89.5554 7.48686 89.7335 7.45123 89.881 7.37997C90.0302 7.30705 90.1487 7.20679 90.2365 7.07919C90.3243 6.94993 90.3815 6.80161 90.408 6.63423C90.4362 6.46354 90.4271 6.31522 90.3807 6.18928C90.3343 6.06333 90.2489 5.96555 90.1246 5.89595C90.002 5.82469 89.8371 5.78906 89.63 5.78906H88.9041L88.2006 10H87.1243ZM91.9461 10H90.7927L93.3953 4.90909H94.7824L95.6922 10H94.5388L93.9198 6.07244H93.8801L91.9461 10ZM92.2096 7.99893H94.934L94.7899 8.83913H92.0654L92.2096 7.99893ZM96.305 10L97.1501 4.90909H98.2265L97.8785 7.00959H100.063L100.411 4.90909H101.485L100.64 10H99.5663L99.9143 7.89702H97.7293L97.3813 10H96.305Z" fill="#7A79C7"/>
</svg>
